<?xml version="1.0" standalone="no"?>
<!DOCTYPE svg PUBLIC "-//W3C//DTD SVG 20010904//EN"
 "http://www.w3.org/TR/2001/REC-SVG-20010904/DTD/svg10.dtd">
<svg version="1.0" xmlns="http://www.w3.org/2000/svg"
 width="900.000000pt" height="250.000000pt" viewBox="0 0 900.000000 250.000000"
 preserveAspectRatio="xMidYMid meet">
<metadata>
Created by potrace 1.16, written by Peter Selinger 2001-2019
</metadata>
<g transform="translate(0.000000,250.000000) scale(0.100000,-0.100000)"
fill="#000000" stroke="none">
<path d="M132 2127 c-58 -129 -83 -265 -83 -457 1 -150 18 -284 55 -412 50
-171 47 -240 -11 -308 -20 -23 -47 -46 -60 -51 l-24 -9 20 -26 c24 -31 26 -51
9 -106 -9 -29 -9 -44 -1 -58 7 -9 16 -36 23 -58 8 -31 23 -51 57 -77 25 -19
54 -35 64 -35 11 0 37 -16 59 -36 38 -34 79 -53 279 -125 68 -24 142 -36 296
-49 151 -13 281 0 435 41 63 18 147 39 187 48 39 9 72 20 73 24 5 16 -52 107
-73 119 -39 21 -89 18 -145 -9 -31 -14 -63 -23 -75 -20 -143 35 -140 33 -131
108 5 46 3 60 -7 63 -8 2 -34 10 -59 17 l-45 13 30 7 c24 5 18 7 -27 8 -96 2
-122 -23 -127 -122 0 -16 -3 -33 -7 -38 -7 -12 -84 -11 -84 1 0 6 -15 10 -32
10 -28 0 -80 19 -54 20 6 0 2 6 -8 13 -16 12 -17 15 -3 28 30 30 -11 37 -215
39 -214 1 -255 7 -250 35 2 10 10 24 18 32 7 8 20 24 28 35 14 19 25 22 108
22 109 0 219 -24 295 -64 50 -26 53 -27 68 -10 9 10 27 21 41 24 24 6 28 17
24 67 -3 59 173 283 238 304 36 11 103 -19 129 -57 12 -18 27 -55 33 -83 6
-27 19 -58 28 -69 37 -41 130 -68 177 -50 8 4 22 19 31 35 10 21 22 29 40 29
34 0 86 -25 115 -56 19 -20 32 -24 86 -24 35 0 63 3 62 8 -4 43 -63 122 -177
240 -12 13 -20 28 -17 33 4 5 0 9 -8 9 -7 0 -19 11 -27 24 -7 14 -23 27 -37
31 -13 3 -21 10 -18 15 3 6 -4 10 -16 10 -12 0 -20 3 -16 6 7 7 -17 34 -29 34
-4 0 -16 7 -26 17 -15 13 -23 14 -46 4 -28 -12 -23 -6 25 27 16 11 16 12 -6 6
-17 -4 -21 -3 -16 6 12 19 -48 -15 -70 -41 -17 -20 -15 -19 16 4 20 15 40 27
45 27 12 0 -68 -54 -84 -56 -10 -2 -11 6 -7 27 6 29 6 29 -29 24 -20 -2 -41
-7 -46 -10 -6 -4 -7 1 -3 12 6 16 5 16 -10 4 -10 -8 -20 -11 -24 -8 -3 4 -13
2 -23 -3 -10 -5 -21 -6 -25 -2 -3 4 -10 7 -13 8 -47 5 -88 22 -113 45 -17 16
-37 29 -45 29 -7 0 -17 7 -21 15 -5 8 -17 16 -28 18 -27 5 -55 16 -87 33 -16
8 -28 11 -28 6 0 -6 -26 -8 -59 -6 -46 4 -60 1 -65 -11 -3 -10 -19 -15 -46
-15 -23 0 -39 -4 -36 -8 8 -14 -19 -10 -32 5 -8 8 -9 13 -2 13 11 0 47 38 130
138 38 47 49 67 41 75 -8 8 -11 8 -11 0 0 -6 -14 -13 -31 -17 -17 -3 -28 -10
-25 -15 9 -14 -16 -29 -49 -29 -16 0 -31 -5 -33 -11 -2 -6 -15 -11 -29 -11
-18 0 -24 -4 -19 -15 10 -27 -47 -17 -97 16 -26 17 -47 34 -47 38 0 4 16 14
35 21 61 24 63 35 16 90 -36 42 -39 50 -22 50 18 0 19 2 4 30 -8 17 -23 35
-34 40 -23 13 -25 27 -2 32 13 2 9 10 -20 37 -20 19 -34 38 -31 42 5 9 -48 49
-65 49 -25 0 -6 -103 49 -270 79 -240 100 -344 73 -371 -21 -21 -72 -14 -116
17 -73 52 -100 122 -112 294 -10 132 29 354 76 442 6 11 9 29 7 41 -3 18 -8
12 -26 -26z"/>
<path d="M3420 1235 l0 -616 123 3 122 3 5 230 c6 257 7 263 79 303 48 27 86
28 128 2 65 -39 68 -49 71 -307 l3 -233 125 0 124 0 0 258 c0 282 -6 324 -56
389 -40 53 -140 97 -233 101 -89 5 -136 -8 -196 -53 l-45 -35 0 285 0 285
-125 0 -125 0 0 -615z"/>
<path d="M2780 1800 c-126 -33 -215 -84 -306 -175 -130 -130 -193 -287 -180
-456 10 -144 69 -264 185 -379 84 -83 177 -136 291 -166 86 -23 252 -23 343
-1 71 18 170 61 188 83 7 9 -5 43 -45 122 l-55 109 -63 -31 c-59 -30 -68 -31
-183 -31 -111 0 -124 2 -176 28 -103 50 -184 166 -196 280 -6 62 15 149 51
206 32 50 100 109 152 132 50 22 179 41 226 33 51 -9 157 -45 163 -55 14 -21
28 -3 81 102 60 121 61 113 -6 148 -122 65 -334 88 -470 51z"/>
<path d="M7869 1773 c-6 -16 -111 -278 -235 -584 -123 -305 -224 -558 -224
-562 0 -4 64 -6 142 -5 l142 3 19 50 c10 28 29 80 43 118 l26 67 222 0 223 0
44 -117 44 -118 144 -3 c113 -2 142 0 138 10 -2 7 -109 273 -237 591 l-233
577 -124 0 -123 0 -11 -27z m201 -507 c33 -86 60 -161 60 -167 0 -5 -54 -9
-125 -9 -101 0 -125 3 -125 14 0 8 24 77 53 153 30 76 57 147 61 157 3 10 9
17 11 14 3 -2 32 -75 65 -162z"/>
<path d="M8650 1210 l0 -590 130 0 130 0 0 590 0 590 -130 0 -130 0 0 -590z"/>
<path d="M5370 1490 l0 -140 -55 0 -56 0 3 -92 3 -93 53 -3 52 -3 0 -159 c0
-181 10 -240 49 -303 41 -64 103 -92 201 -91 78 0 180 28 180 48 0 6 -13 52
-29 101 -20 64 -32 89 -42 86 -8 -2 -29 -6 -47 -9 -49 -7 -62 34 -62 197 l0
130 78 3 77 3 3 92 3 92 -78 3 -78 3 -3 138 -3 137 -124 0 -125 0 0 -140z"/>
<path d="M4607 1368 c-74 -9 -147 -49 -202 -110 -109 -122 -133 -304 -60 -454
35 -71 129 -157 197 -180 113 -38 267 -14 329 52 31 33 39 30 39 -16 l0 -41
123 3 122 3 3 363 2 362 -130 0 -130 0 0 -32 c0 -29 -1 -30 -17 -16 -60 52
-173 79 -276 66z m228 -238 c52 -32 79 -96 71 -164 -6 -54 -25 -87 -70 -120
-39 -30 -153 -30 -192 0 -46 34 -65 67 -70 125 -14 146 135 237 261 159z"/>
<path d="M7203 1355 c-18 -8 -55 -35 -83 -61 l-50 -47 0 52 0 51 -125 0 -125
0 2 -362 3 -363 122 -3 122 -3 3 208 c3 229 11 264 71 307 34 25 129 26 178 2
18 -9 33 -15 34 -14 2 2 26 49 54 106 l52 103 -43 19 c-52 24 -167 26 -215 5z"/>
<path d="M5880 1102 c0 -298 6 -329 79 -402 70 -70 145 -92 311 -92 213 0 321
53 371 180 20 52 23 79 27 310 l4 252 -131 0 -131 0 0 -215 c0 -229 -5 -260
-50 -300 -17 -16 -36 -20 -90 -20 -59 0 -72 3 -94 24 -40 37 -46 79 -46 304
l0 207 -125 0 -125 0 0 -248z"/>
</g>
</svg>
